<?xml version="1.0" encoding="UTF-8"?>
<!DOCTYPE svg PUBLIC "-//W3C//DTD SVG 1.1//EN" "http://www.w3.org/Graphics/SVG/1.1/DTD/svg11.dtd">
<svg xmlns="http://www.w3.org/2000/svg" version="1.1" width="569px" height="169px" style="shape-rendering:geometricPrecision; text-rendering:geometricPrecision; image-rendering:optimizeQuality; fill-rule:evenodd; clip-rule:evenodd" xmlns:xlink="http://www.w3.org/1999/xlink">
<g><path style="opacity:1" fill="#fefdfd" d="M -0.5,-0.5 C 189.167,-0.5 378.833,-0.5 568.5,-0.5C 568.5,55.8333 568.5,112.167 568.5,168.5C 378.833,168.5 189.167,168.5 -0.5,168.5C -0.5,112.167 -0.5,55.8333 -0.5,-0.5 Z"/></g>
<g><path style="opacity:1" fill="#f6834e" d="M 73.5,22.5 C 73.5,22.8333 73.5,23.1667 73.5,23.5C 72.828,24.2674 71.9947,24.9341 71,25.5C 70.168,34.5185 70.3347,43.5185 71.5,52.5C 75.7695,58.6258 81.2695,62.9592 88,65.5C 89.3333,71.1667 87.3333,72.8333 82,70.5C 81.6667,68.8333 81.3333,67.1667 81,65.5C 76.9648,61.7998 73.2981,57.7998 70,53.5C 65.5,58 61,62.5 56.5,67C 55.6683,67.6877 55.0016,67.521 54.5,66.5C 58.8181,61.6815 63.3181,57.0148 68,52.5C 68.6667,43.5 68.6667,34.5 68,25.5C 64.9936,22.7652 61.6603,22.0985 58,23.5C 57.3333,29.5 57.3333,35.5 58,41.5C 59.8333,44 61.6667,46.5 63.5,49C 63.1667,49.1667 62.8333,49.3333 62.5,49.5C 60.1622,47.6613 57.9955,45.6613 56,43.5C 47.0713,51.7006 46.4046,51.0339 54,41.5C 54.8299,35.8041 54.6632,30.1375 53.5,24.5C 51.9291,25.3094 50.2624,25.6427 48.5,25.5C 48.5,25.1667 48.5,24.8333 48.5,24.5C 55.3336,20.0804 62.3336,19.7471 69.5,23.5C 70.8492,23.1543 72.1825,22.821 73.5,22.5 Z"/></g>
<g><path style="opacity:1" fill="#fffbf9" d="M 73.5,23.5 C 76.7943,22.4809 80.1276,22.4809 83.5,23.5C 84.2295,28.5032 83.2295,33.0032 80.5,37C 81.4473,40.0723 83.4473,41.0723 86.5,40C 89.3143,37.5873 89.1477,35.4206 86,33.5C 85.502,30.5184 85.3354,27.5184 85.5,24.5C 98.1884,27.8705 104.522,36.2039 104.5,49.5C 98.7414,49.7857 93.0748,49.4524 87.5,48.5C 83.2175,46.4518 81.0509,47.7851 81,52.5C 83.6496,55.2174 86.1496,55.0507 88.5,52C 94.9147,51.2098 101.248,51.3765 107.5,52.5C 113.559,54.894 117.559,59.2273 119.5,65.5C 114.695,66.4872 109.695,66.8205 104.5,66.5C 102.935,64.2812 100.935,63.9479 98.5,65.5C 96.9136,71.4416 98.9136,72.9416 104.5,70C 110.157,69.5006 115.824,69.3339 121.5,69.5C 122.342,74.787 122.676,80.1203 122.5,85.5C 116.968,86.0518 111.801,85.0518 107,82.5C 103.928,83.4473 102.928,85.4473 104,88.5C 104.804,89.8045 105.971,90.4712 107.5,90.5C 122.182,84.2559 125.015,87.5892 116,100.5C 113.278,103.444 110.111,105.777 106.5,107.5C 102.129,103.627 97.962,99.6269 94,95.5C 93.8078,93.4233 93.3078,91.4233 92.5,89.5C 87.7346,87.8094 85.9013,89.4761 87,94.5C 88.7337,95.2489 90.567,95.7489 92.5,96C 95.9651,100.467 99.7984,104.633 104,108.5C 105.594,120.182 101.76,129.515 92.5,136.5C 89.8736,137.422 87.2069,138.422 84.5,139.5C 84.1667,137.833 83.8333,136.167 83.5,134.5C 83.5777,131.525 84.5777,129.025 86.5,127C 86.0553,123.211 84.0553,121.877 80.5,123C 77.8808,125.257 77.8808,127.423 80.5,129.5C 81.4892,133.107 81.8226,136.774 81.5,140.5C 77.8313,140.668 74.4979,139.668 71.5,137.5C 70.5017,128.19 70.1684,118.857 70.5,109.5C 75.8746,109.172 81.2079,109.505 86.5,110.5C 88.0437,112.446 90.0437,112.946 92.5,112C 94.2856,108.573 93.4522,106.073 90,104.5C 88.5659,104.93 87.3992,105.764 86.5,107C 81.1771,107.499 75.8437,107.666 70.5,107.5C 70.5,98.5 70.5,89.5 70.5,80.5C 74.135,80.7412 77.4683,81.5745 80.5,83C 84.5139,79.8113 84.0139,77.3113 79,75.5C 77.5659,75.9304 76.3992,76.7638 75.5,78C 73.5,78.6667 71.5,78.6667 69.5,78C 68.2101,75.708 66.5435,73.708 64.5,72C 63.365,71.2506 62.365,71.4173 61.5,72.5C 64.0367,74.2021 66.0367,76.3688 67.5,79C 64.5489,82.9541 61.2156,86.6207 57.5,90C 58,90.5 58.5,91 59,91.5C 62,88.5 65,85.5 68,82.5C 68.6667,88.1667 68.6667,93.8333 68,99.5C 61.5316,106.97 54.6983,114.136 47.5,121C 48.5,121.667 49.5,121.667 50.5,121C 52.0542,119.108 53.8876,117.608 56,116.5C 58.6312,117.963 60.7979,119.963 62.5,122.5C 63.521,121.998 63.6877,121.332 63,120.5C 61.2854,118.241 59.4521,116.074 57.5,114C 61.3689,110.466 64.8689,106.633 68,102.5C 68.8325,114.181 68.6659,125.848 67.5,137.5C 65.4664,138.559 63.4664,139.559 61.5,140.5C 51.0945,140.609 49.5945,137.609 57,131.5C 57.6877,130.668 57.521,130.002 56.5,129.5C 53.8333,131.833 51.1667,134.167 48.5,136.5C 38.1875,130.104 33.6875,120.77 35,108.5C 40.0318,103.133 45.3651,98.1335 51,93.5C 51.6667,92.5 51.6667,91.5 51,90.5C 48.2974,93.538 45.2974,96.2046 42,98.5C 38.7026,96.2046 35.7026,93.538 33,90.5C 32.3333,91.1667 32.3333,91.8333 33,92.5C 35.7349,94.7319 37.9016,97.3986 39.5,100.5C 37.517,102.984 35.3504,105.317 33,107.5C 25.5396,104.54 20.7063,99.2066 18.5,91.5C 23.1667,86.1667 28.1667,81.1667 33.5,76.5C 37.106,78.6028 40.2727,81.2694 43,84.5C 43.6667,83.5 43.6667,82.5 43,81.5C 40.022,79.689 37.522,77.3557 35.5,74.5C 38.8333,70.8333 42.1667,67.1667 45.5,63.5C 44.9984,62.479 44.3317,62.3123 43.5,63C 35,71.5 26.5,80 18,88.5C 14.2459,75.3474 17.4125,64.1807 27.5,55C 29.2738,54.0296 31.1072,53.1963 33,52.5C 35.7838,54.2799 38.2838,56.4465 40.5,59C 41.3317,59.6877 41.9984,59.521 42.5,58.5C 39.9464,56.2919 37.4464,53.9586 35,51.5C 34.5041,40.1562 39.0041,31.4895 48.5,25.5C 50.2624,25.6427 51.9291,25.3094 53.5,24.5C 54.6632,30.1375 54.8299,35.8041 54,41.5C 46.4046,51.0339 47.0713,51.7006 56,43.5C 57.9955,45.6613 60.1622,47.6613 62.5,49.5C 62.8333,49.3333 63.1667,49.1667 63.5,49C 61.6667,46.5 59.8333,44 58,41.5C 57.3333,35.5 57.3333,29.5 58,23.5C 61.6603,22.0985 64.9936,22.7652 68,25.5C 68.6667,34.5 68.6667,43.5 68,52.5C 63.3181,57.0148 58.8181,61.6815 54.5,66.5C 55.0016,67.521 55.6683,67.6877 56.5,67C 61,62.5 65.5,58 70,53.5C 73.2981,57.7998 76.9648,61.7998 81,65.5C 81.3333,67.1667 81.6667,68.8333 82,70.5C 87.3333,72.8333 89.3333,71.1667 88,65.5C 81.2695,62.9592 75.7695,58.6258 71.5,52.5C 70.3347,43.5185 70.168,34.5185 71,25.5C 71.9947,24.9341 72.828,24.2674 73.5,23.5 Z"/></g>
<g><path style="opacity:1" fill="#f89749" d="M 109.5,51.5 C 109.158,52.3382 108.492,52.6716 107.5,52.5C 101.248,51.3765 94.9147,51.2098 88.5,52C 86.1496,55.0507 83.6496,55.2174 81,52.5C 81.0509,47.7851 83.2175,46.4518 87.5,48.5C 89.9151,49.8142 92.7485,50.4809 96,50.5C 99.0208,50.4978 101.854,50.1644 104.5,49.5C 104.522,36.2039 98.1884,27.8705 85.5,24.5C 85.3354,27.5184 85.502,30.5184 86,33.5C 89.1477,35.4206 89.3143,37.5873 86.5,40C 83.4473,41.0723 81.4473,40.0723 80.5,37C 83.2295,33.0032 84.2295,28.5032 83.5,23.5C 80.1276,22.4809 76.7943,22.4809 73.5,23.5C 73.5,23.1667 73.5,22.8333 73.5,22.5C 84.464,20.4365 93.964,23.7698 102,32.5C 105.07,38.1115 106.903,44.1115 107.5,50.5C 108.183,50.8627 108.85,51.1961 109.5,51.5 Z"/></g>
<g><path style="opacity:1" fill="#fff7f2" d="M 83.5,35.5 C 84.5,35.5 85.5,35.5 86.5,35.5C 86.5,36.5 86.5,37.5 86.5,38.5C 85.5,38.5 84.5,38.5 83.5,38.5C 83.5,37.5 83.5,36.5 83.5,35.5 Z"/></g>
<g><path style="opacity:1" fill="#626262" d="M 487.5,41.5 C 491.97,40.5139 496.637,40.1805 501.5,40.5C 501.768,42.099 501.434,43.4324 500.5,44.5C 500.5,43.5 500.5,42.5 500.5,41.5C 496.167,41.5 491.833,41.5 487.5,41.5 Z"/></g>
<g><path style="opacity:1" fill="#0d0d0d" d="M 183.5,41.5 C 189.425,41.1918 195.259,41.5251 201,42.5C 210.474,69.0897 219.641,95.7564 228.5,122.5C 226.533,122.739 224.699,122.406 223,121.5C 220.599,114.129 218.099,106.796 215.5,99.5C 199.51,98.3338 183.51,98.1671 167.5,99C 164.535,106.729 161.868,114.563 159.5,122.5C 157.833,122.5 156.167,122.5 154.5,122.5C 162.291,96.9599 170.791,71.6266 180,46.5C 180.697,44.4156 181.864,42.7489 183.5,41.5 Z"/></g>
<g><path style="opacity:1" fill="#9e9e9e" d="M 243.5,41.5 C 241.833,41.5 240.167,41.5 238.5,41.5C 238.5,68.5 238.5,95.5 238.5,122.5C 237.502,95.3384 237.169,68.0051 237.5,40.5C 239.735,40.2053 241.735,40.5386 243.5,41.5 Z"/></g>
<g><path style="opacity:1" fill="#000000" d="M 243.5,41.5 C 243.5,68.5 243.5,95.5 243.5,122.5C 241.833,122.5 240.167,122.5 238.5,122.5C 238.5,95.5 238.5,68.5 238.5,41.5C 240.167,41.5 241.833,41.5 243.5,41.5 Z"/></g>
<g><path style="opacity:1" fill="#0f0f0f" d="M 294.5,41.5 C 309.504,41.3334 324.504,41.5001 339.5,42C 345.721,43.9234 349.554,48.0901 351,54.5C 353.954,65.5252 351.121,74.5252 342.5,81.5C 349.259,86.3593 352.259,93.026 351.5,101.5C 352.419,111.266 348.419,118.1 339.5,122C 324.259,122.824 309.092,122.657 294,121.5C 293.176,94.7612 293.343,68.0945 294.5,41.5 Z"/></g>
<g><path style="opacity:1" fill="#030303" d="M 487.5,41.5 C 491.833,41.5 496.167,41.5 500.5,41.5C 500.5,42.5 500.5,43.5 500.5,44.5C 496.018,45.3255 491.351,45.8255 486.5,46C 484.077,47.5707 482.744,49.7374 482.5,52.5C 481.347,58.3188 481.181,64.3188 482,70.5C 482.995,69.9341 483.828,69.2674 484.5,68.5C 488.833,68.5 493.167,68.5 497.5,68.5C 497.768,70.099 497.434,71.4324 496.5,72.5C 491.5,72.5 486.5,72.5 481.5,72.5C 481.5,89.1667 481.5,105.833 481.5,122.5C 480.167,122.5 478.833,122.5 477.5,122.5C 477.5,98.8333 477.5,75.1667 477.5,51.5C 478.833,46.1667 482.167,42.8333 487.5,41.5 Z"/></g>
<g><path style="opacity:1" fill="#141414" d="M 400.5,44.5 C 402.167,44.5 403.833,44.5 405.5,44.5C 405.5,46.5 405.5,48.5 405.5,50.5C 403.833,50.5 402.167,50.5 400.5,50.5C 400.5,48.5 400.5,46.5 400.5,44.5 Z"/></g>
<g><path style="opacity:1" fill="#fafafa" d="M 186.5,45.5 C 190.167,45.5 193.833,45.5 197.5,45.5C 202.253,61.6773 207.586,77.6773 213.5,93.5C 198.848,94.4993 184.182,94.8326 169.5,94.5C 174.183,77.7825 179.85,61.4491 186.5,45.5 Z"/></g>
<g><path style="opacity:1" fill="#fcfcfc" d="M 299.5,45.5 C 312.894,45.0755 326.227,45.5755 339.5,47C 344.934,50.4545 346.934,55.4545 345.5,62C 346.61,68.0334 344.943,73.0334 340.5,77C 326.907,78.4458 313.24,78.9458 299.5,78.5C 299.5,67.5 299.5,56.5 299.5,45.5 Z"/></g>
<g><path style="opacity:1" fill="#fff4ed" d="M 83.5,49.5 C 84.5,49.5 85.5,49.5 86.5,49.5C 86.5,50.5 86.5,51.5 86.5,52.5C 85.5,52.5 84.5,52.5 83.5,52.5C 83.5,51.5 83.5,50.5 83.5,49.5 Z"/></g>
<g><path style="opacity:1" fill="#fabb84" d="M 87.5,48.5 C 93.0748,49.4524 98.7414,49.7857 104.5,49.5C 101.854,50.1644 99.0208,50.4978 96,50.5C 92.7485,50.4809 89.9151,49.8142 87.5,48.5 Z"/></g>
<g><path style="opacity:1" fill="#797979" d="M 482.5,52.5 C 481.887,58.2709 482.554,63.6042 484.5,68.5C 483.828,69.2674 482.995,69.9341 482,70.5C 481.181,64.3188 481.347,58.3188 482.5,52.5 Z"/></g>
<g><path style="opacity:1" fill="#838383" d="M 477.5,51.5 C 477.5,75.1667 477.5,98.8333 477.5,122.5C 478.833,122.5 480.167,122.5 481.5,122.5C 480.081,123.451 478.415,123.784 476.5,123.5C 476.169,99.3275 476.502,75.3275 477.5,51.5 Z"/></g>
<g><path style="opacity:1" fill="#f25f46" d="M 48.5,24.5 C 48.5,24.8333 48.5,25.1667 48.5,25.5C 39.0041,31.4895 34.5041,40.1562 35,51.5C 37.4464,53.9586 39.9464,56.2919 42.5,58.5C 41.9984,59.521 41.3317,59.6877 40.5,59C 38.2838,56.4465 35.7838,54.2799 33,52.5C 31.1072,53.1963 29.2738,54.0296 27.5,55C 17.4125,64.1807 14.2459,75.3474 18,88.5C 26.5,80 35,71.5 43.5,63C 44.3317,62.3123 44.9984,62.479 45.5,63.5C 42.1667,67.1667 38.8333,70.8333 35.5,74.5C 37.522,77.3557 40.022,79.689 43,81.5C 43.6667,82.5 43.6667,83.5 43,84.5C 40.2727,81.2694 37.106,78.6028 33.5,76.5C 28.1667,81.1667 23.1667,86.1667 18.5,91.5C 20.7063,99.2066 25.5396,104.54 33,107.5C 35.3504,105.317 37.517,102.984 39.5,100.5C 37.9016,97.3986 35.7349,94.7319 33,92.5C 32.3333,91.8333 32.3333,91.1667 33,90.5C 35.7026,93.538 38.7026,96.2046 42,98.5C 45.2974,96.2046 48.2974,93.538 51,90.5C 51.6667,91.5 51.6667,92.5 51,93.5C 45.3651,98.1335 40.0318,103.133 35,108.5C 33.6875,120.77 38.1875,130.104 48.5,136.5C 51.1667,134.167 53.8333,131.833 56.5,129.5C 57.521,130.002 57.6877,130.668 57,131.5C 49.5945,137.609 51.0945,140.609 61.5,140.5C 61.1583,141.338 60.4916,141.672 59.5,141.5C 40.9515,138.6 31.6182,127.6 31.5,108.5C 17.5179,101.004 12.0179,89.3376 15,73.5C 16.5332,62.7627 22.1999,55.096 32,50.5C 32.2725,38.2432 37.7725,29.5765 48.5,24.5 Z"/></g>
<g><path style="opacity:1" fill="#fef8f4" d="M 83.5,66.5 C 84.5,66.5 85.5,66.5 86.5,66.5C 86.5,67.5 86.5,68.5 86.5,69.5C 85.5,69.5 84.5,69.5 83.5,69.5C 83.5,68.5 83.5,67.5 83.5,66.5 Z"/></g>
<g><path style="opacity:1" fill="#070707" d="M 363.5,68.5 C 365.167,68.5 366.833,68.5 368.5,68.5C 368.628,71.7741 369.961,71.9408 372.5,69C 378.491,68.5005 384.491,68.3338 390.5,68.5C 390.5,69.8333 390.5,71.1667 390.5,72.5C 384.824,72.3339 379.157,72.5006 373.5,73C 371.333,73.8333 369.833,75.3333 369,77.5C 368.5,92.4963 368.333,107.496 368.5,122.5C 366.833,122.5 365.167,122.5 363.5,122.5C 363.5,104.5 363.5,86.5 363.5,68.5 Z"/></g>
<g><path style="opacity:1" fill="#000000" d="M 404.5,68.5 C 404.5,86.5 404.5,104.5 404.5,122.5C 403.5,122.5 402.5,122.5 401.5,122.5C 400.503,104.674 400.17,86.6744 400.5,68.5C 401.833,68.5 403.167,68.5 404.5,68.5 Z"/></g>
<g><path style="opacity:1" fill="#060606" d="M 426.5,97.5 C 426.44,96.9569 426.107,96.6236 425.5,96.5C 424.188,101.318 424.188,105.985 425.5,110.5C 425.938,114.192 427.938,116.692 431.5,118C 441.828,118.5 452.161,118.666 462.5,118.5C 462.5,119.833 462.5,121.167 462.5,122.5C 451.162,122.667 439.828,122.5 428.5,122C 426.04,120.542 423.873,118.709 422,116.5C 420.371,103.261 420.038,89.9281 421,76.5C 422.5,73 425,70.5 428.5,69C 437.5,68.3333 446.5,68.3333 455.5,69C 458.667,70.8333 461.167,73.3333 463,76.5C 463.5,83.4921 463.666,90.4921 463.5,97.5C 451.167,97.5 438.833,97.5 426.5,97.5 Z"/></g>
<g><path style="opacity:1" fill="#0c0c0c" d="M 516.5,68.5 C 526.5,68.5 536.5,68.5 546.5,68.5C 546.5,69.8333 546.5,71.1667 546.5,72.5C 537.161,72.3335 527.827,72.5002 518.5,73C 513.581,75.7412 511.748,79.9079 513,85.5C 513.75,86.1258 514.584,86.6258 515.5,87C 527.208,91.122 538.708,95.622 550,100.5C 551.127,106.755 550.46,112.755 548,118.5C 546.2,120.317 544.034,121.484 541.5,122C 530.172,122.5 518.838,122.667 507.5,122.5C 507.5,121.167 507.5,119.833 507.5,118.5C 518.505,118.667 529.505,118.5 540.5,118C 542.286,117.215 543.786,116.049 545,114.5C 545.827,110.459 545.66,106.459 544.5,102.5C 533.997,98.3688 523.33,94.5354 512.5,91C 510.714,90.2155 509.214,89.0488 508,87.5C 506.015,78.8158 508.848,72.4824 516.5,68.5 Z"/></g>
<g><path style="opacity:1" fill="#656565" d="M 404.5,68.5 C 405.497,86.6591 405.83,104.992 405.5,123.5C 403.901,123.768 402.568,123.434 401.5,122.5C 402.5,122.5 403.5,122.5 404.5,122.5C 404.5,104.5 404.5,86.5 404.5,68.5 Z"/></g>
<g><path style="opacity:1" fill="#fafafa" d="M 458.5,80.5 C 458.5,84.5 458.5,88.5 458.5,92.5C 447.5,92.5 436.5,92.5 425.5,92.5C 425.334,87.4889 425.501,82.4889 426,77.5C 427.227,75.2739 429.061,73.7739 431.5,73C 438.167,72.3333 444.833,72.3333 451.5,73C 455.768,73.7656 458.101,76.2656 458.5,80.5 Z"/></g>
<g><path style="opacity:1" fill="#848484" d="M 496.5,72.5 C 492.03,73.4861 487.363,73.8195 482.5,73.5C 482.83,90.0085 482.496,106.342 481.5,122.5C 481.5,105.833 481.5,89.1667 481.5,72.5C 486.5,72.5 491.5,72.5 496.5,72.5 Z"/></g>
<g><path style="opacity:1" fill="#f6864b" d="M 92.5,136.5 C 93.1667,136.5 93.5,136.833 93.5,137.5C 88.8085,140.008 83.8085,141.675 78.5,142.5C 75.634,141.241 72.634,140.241 69.5,139.5C 66.8629,140.442 64.1963,141.442 61.5,142.5C 60.5836,142.457 59.9169,142.124 59.5,141.5C 60.4916,141.672 61.1583,141.338 61.5,140.5C 63.4664,139.559 65.4664,138.559 67.5,137.5C 68.6659,125.848 68.8325,114.181 68,102.5C 64.8689,106.633 61.3689,110.466 57.5,114C 59.4521,116.074 61.2854,118.241 63,120.5C 63.6877,121.332 63.521,121.998 62.5,122.5C 60.7979,119.963 58.6312,117.963 56,116.5C 53.8876,117.608 52.0542,119.108 50.5,121C 49.5,121.667 48.5,121.667 47.5,121C 54.6983,114.136 61.5316,106.97 68,99.5C 68.6667,93.8333 68.6667,88.1667 68,82.5C 65,85.5 62,88.5 59,91.5C 58.5,91 58,90.5 57.5,90C 61.2156,86.6207 64.5489,82.9541 67.5,79C 66.0367,76.3688 64.0367,74.2021 61.5,72.5C 62.365,71.4173 63.365,71.2506 64.5,72C 66.5435,73.708 68.2101,75.708 69.5,78C 71.5,78.6667 73.5,78.6667 75.5,78C 76.3992,76.7638 77.5659,75.9304 79,75.5C 84.0139,77.3113 84.5139,79.8113 80.5,83C 77.4683,81.5745 74.135,80.7412 70.5,80.5C 70.5,89.5 70.5,98.5 70.5,107.5C 75.8437,107.666 81.1771,107.499 86.5,107C 87.3992,105.764 88.5659,104.93 90,104.5C 93.4522,106.073 94.2856,108.573 92.5,112C 90.0437,112.946 88.0437,112.446 86.5,110.5C 81.2079,109.505 75.8746,109.172 70.5,109.5C 70.1684,118.857 70.5017,128.19 71.5,137.5C 74.4979,139.668 77.8313,140.668 81.5,140.5C 81.8226,136.774 81.4892,133.107 80.5,129.5C 77.8808,127.423 77.8808,125.257 80.5,123C 84.0553,121.877 86.0553,123.211 86.5,127C 84.5777,129.025 83.5777,131.525 83.5,134.5C 83.8333,136.167 84.1667,137.833 84.5,139.5C 87.2069,138.422 89.8736,137.422 92.5,136.5 Z"/></g>
<g><path style="opacity:1" fill="#ffe8db" d="M 77.5,77.5 C 78.5,77.5 79.5,77.5 80.5,77.5C 80.762,78.9778 80.4287,80.3112 79.5,81.5C 77.8888,80.6798 77.2222,79.3464 77.5,77.5 Z"/></g>
<g><path style="opacity:1" fill="#faab50" d="M 109.5,51.5 C 117.99,55.8471 122.824,62.8471 124,72.5C 125.716,82.4571 124.049,91.7904 119,100.5C 115.537,104.23 111.537,107.23 107,109.5C 107.038,117.388 105.038,124.721 101,131.5C 98.9135,134.094 96.4135,136.094 93.5,137.5C 93.5,136.833 93.1667,136.5 92.5,136.5C 101.76,129.515 105.594,120.182 104,108.5C 99.7984,104.633 95.9651,100.467 92.5,96C 90.567,95.7489 88.7337,95.2489 87,94.5C 85.9013,89.4761 87.7346,87.8094 92.5,89.5C 93.3078,91.4233 93.8078,93.4233 94,95.5C 97.962,99.6269 102.129,103.627 106.5,107.5C 110.111,105.777 113.278,103.444 116,100.5C 125.015,87.5892 122.182,84.2559 107.5,90.5C 105.971,90.4712 104.804,89.8045 104,88.5C 102.928,85.4473 103.928,83.4473 107,82.5C 111.801,85.0518 116.968,86.0518 122.5,85.5C 122.676,80.1203 122.342,74.787 121.5,69.5C 115.824,69.3339 110.157,69.5006 104.5,70C 98.9136,72.9416 96.9136,71.4416 98.5,65.5C 100.935,63.9479 102.935,64.2812 104.5,66.5C 109.68,67.8147 115.014,67.8147 120.5,66.5C 120.376,65.8933 120.043,65.56 119.5,65.5C 117.559,59.2273 113.559,54.894 107.5,52.5C 108.492,52.6716 109.158,52.3382 109.5,51.5 Z"/></g>
<g><path style="opacity:1" fill="#fddbb4" d="M 119.5,65.5 C 120.043,65.56 120.376,65.8933 120.5,66.5C 115.014,67.8147 109.68,67.8147 104.5,66.5C 109.695,66.8205 114.695,66.4872 119.5,65.5 Z"/></g>
<g><path style="opacity:1" fill="#fff7f0" d="M 99.5,66.5 C 100.5,66.5 101.5,66.5 102.5,66.5C 102.5,67.5 102.5,68.5 102.5,69.5C 101.5,69.5 100.5,69.5 99.5,69.5C 99.5,68.5 99.5,67.5 99.5,66.5 Z"/></g>
<g><path style="opacity:1" fill="#0c0c0c" d="M 280.5,84.5 C 271.833,84.5 263.167,84.5 254.5,84.5C 254.5,83.5 254.5,82.5 254.5,81.5C 263.318,80.5067 272.318,80.1734 281.5,80.5C 281.768,82.099 281.434,83.4324 280.5,84.5 Z"/></g>
<g><path style="opacity:1" fill="#434343" d="M 254.5,81.5 C 254.5,82.5 254.5,83.5 254.5,84.5C 263.167,84.5 271.833,84.5 280.5,84.5C 271.682,85.4933 262.682,85.8266 253.5,85.5C 253.232,83.901 253.566,82.5676 254.5,81.5 Z"/></g>
<g><path style="opacity:1" fill="#fbfbfb" d="M 299.5,83.5 C 312.907,83.0556 326.24,83.5556 339.5,85C 342,86.1667 343.833,88 345,90.5C 345.667,97.5 345.667,104.5 345,111.5C 343.5,113.667 341.667,115.5 339.5,117C 326.227,118.425 312.894,118.925 299.5,118.5C 299.5,106.833 299.5,95.1667 299.5,83.5 Z"/></g>
<g><path style="opacity:1" fill="#fff3e8" d="M 105.5,85.5 C 106.5,85.5 107.5,85.5 108.5,85.5C 108.5,86.5 108.5,87.5 108.5,88.5C 107.5,88.5 106.5,88.5 105.5,88.5C 105.5,87.5 105.5,86.5 105.5,85.5 Z"/></g>
<g><path style="opacity:1" fill="#fff6f1" d="M 88.5,90.5 C 89.5,90.5 90.5,90.5 91.5,90.5C 91.5,91.5 91.5,92.5 91.5,93.5C 90.5,93.5 89.5,93.5 88.5,93.5C 88.5,92.5 88.5,91.5 88.5,90.5 Z"/></g>
<g><path style="opacity:1" fill="#767676" d="M 458.5,80.5 C 459.485,84.6344 459.818,88.9677 459.5,93.5C 447.988,93.8281 436.654,93.4948 425.5,92.5C 436.5,92.5 447.5,92.5 458.5,92.5C 458.5,88.5 458.5,84.5 458.5,80.5 Z"/></g>
<g><path style="opacity:1" fill="#5f5f5f" d="M 426.5,97.5 C 425.515,101.634 425.182,105.968 425.5,110.5C 424.188,105.985 424.188,101.318 425.5,96.5C 426.107,96.6236 426.44,96.9569 426.5,97.5 Z"/></g>
<g><path style="opacity:1" fill="#fff6f1" d="M 88.5,107.5 C 91.9571,107.667 92.2904,108.667 89.5,110.5C 88.6143,109.675 88.281,108.675 88.5,107.5 Z"/></g>
<g><path style="opacity:1" fill="#ffe6d8" d="M 81.5,124.5 C 82.5862,124.62 83.2528,125.287 83.5,126.5C 82.6964,128.957 81.6964,128.957 80.5,126.5C 80.8627,125.817 81.1961,125.15 81.5,124.5 Z"/></g>
</svg>
